<svg width="178" height="57" viewBox="0 0 178 57" fill="none" xmlns="http://www.w3.org/2000/svg">
<path d="M27.8716 1.08083e-07C22.359 1.29457e-07 16.9702 1.6347 12.3867 4.69737C7.8032 7.76005 4.23083 12.1131 2.12137 17.2061C0.0119137 22.2991 -0.539893 27.9033 0.535736 33.3099C1.61136 38.7165 4.26612 43.6828 8.16427 47.5806C12.0624 51.4784 17.0289 54.1327 22.4356 55.2078C27.8423 56.283 33.4464 55.7307 38.5392 53.6208C43.6321 51.5109 47.9848 47.9381 51.0471 43.3544C54.1094 38.7706 55.7436 33.3817 55.7431 27.8691C55.7431 24.2091 55.0222 20.5849 53.6215 17.2035C52.2207 13.8221 50.1677 10.7497 47.5796 8.1618C44.9914 5.57388 41.9189 3.52111 38.5373 2.1207C35.1558 0.720295 31.5316 -0.000322219 27.8716 1.08083e-07V1.08083e-07ZM37.3576 43.4247H20.4349V39.9101H26.9021V20.4643C26.9021 19.7738 26.9242 19.0703 26.9684 18.3536L21.986 22.5554C21.7967 22.7164 21.5723 22.8308 21.3307 22.8892C21.1247 22.9356 20.9109 22.9356 20.7049 22.8892C20.5218 22.8504 20.3467 22.7807 20.187 22.6831C20.05 22.6022 19.9293 22.4965 19.8311 22.3714L18.388 20.3441L27.7366 12.3159H31.5163V39.9101H37.3576V43.4247Z" fill="#FF99CC"/>
<path d="M74.6145 35.7107C75.4343 39.3726 78.0506 40.9876 82.2794 40.9876C86.5083 40.9876 88.2901 39.326 88.2901 36.6557C88.2901 33.6884 86.5304 32.4023 80.2963 30.9493C70.3734 28.6201 67.9215 25.0122 67.9215 20.0888C67.9215 13.7345 72.6756 9.41978 81.3051 9.41978C90.985 9.41978 94.8432 14.623 95.366 19.9563H87.4213C87.0409 17.713 85.799 15.2759 81.1013 15.2759C77.9107 15.2759 75.9693 16.5987 75.9693 19.1856C75.9693 21.721 77.518 22.7493 83.4084 24.1164C94.0136 26.6149 96.3379 30.5591 96.3379 35.7009C96.3379 42.3571 91.3016 46.9246 81.6634 46.9246C72.4081 46.9246 67.5337 42.3669 66.66 35.7205L74.6145 35.7107Z" fill="#FF99CC"/>
<path d="M98.6082 19.0261H102.839V11.614H110.418V19.0261H115.781V24.7226H110.406V38.2215C110.406 40.3004 111.042 41.1078 113.3 41.1078C113.874 41.1146 114.448 41.086 115.018 41.0219V46.235C113.516 46.7455 111.454 46.7577 109.925 46.7577C104.584 46.7577 102.82 43.9033 102.82 39.1125V24.7226H98.6082V19.0261Z" fill="#FF99CC"/>
<path d="M145.405 32.66C145.405 40.9409 140.45 47.0326 131.779 47.0326C123.289 47.0326 118.334 40.9778 118.334 32.7974C118.334 24.3496 123.444 18.3831 132.137 18.3831C140.195 18.3904 145.405 24.0771 145.405 32.66ZM126.016 32.7115C126.016 37.981 128.284 41.1029 131.933 41.1029C135.644 41.1029 137.706 37.9785 137.706 32.7582C137.706 27.0297 135.603 24.3226 131.815 24.3226C128.323 24.3226 126.026 26.9242 126.026 32.7115H126.016Z" fill="#FF99CC"/>
<path d="M158.141 43.9745V56.8819H150.608V25.6234C150.608 23.4145 150.608 21.2203 150.557 19.0261H157.895C158.04 20.1571 158.122 21.2952 158.141 22.4352C159.316 20.4251 161.759 18.3904 166.1 18.3904C172.236 18.3904 177.002 23.5323 177.002 32.0243C177.002 41.6821 171.691 47.0326 165.06 47.0326C161.199 47.0326 159.184 45.5747 158.141 43.9745ZM169.311 32.3164C169.311 27.2997 167.281 24.4625 163.666 24.4625C159.361 24.4625 157.834 27.2236 157.834 32.741C157.834 37.9638 159.245 41.0048 163.342 41.0048C167.359 41.0097 169.311 37.8926 169.311 32.3164Z" fill="#FF99CC"/>
</svg>
